<?xml version="1.0" encoding="UTF-8" standalone="no" ?>
<!DOCTYPE svg PUBLIC "-//W3C//DTD SVG 1.1//EN" "http://www.w3.org/Graphics/SVG/1.1/DTD/svg11.dtd">
<svg xmlns="http://www.w3.org/2000/svg" xmlns:xlink="http://www.w3.org/1999/xlink" version="1.1" width="1080" height="1080" viewBox="0 0 1080 1080" xml:space="preserve">
<desc>Created with Fabric.js 5.2.4</desc>
<defs>
</defs>
<g transform="matrix(1 0 0 1 540 540)" id="00bf0f9d-5744-4f2c-bf55-a93e9fb58952"  >
<rect style="stroke: none; stroke-width: 1; stroke-dasharray: none; stroke-linecap: butt; stroke-dashoffset: 0; stroke-linejoin: miter; stroke-miterlimit: 4; fill: rgb(255,255,255); fill-rule: nonzero; opacity: 1; visibility: hidden;" vector-effect="non-scaling-stroke"  x="-540" y="-540" rx="0" ry="0" width="1080" height="1080" />
</g>
<g transform="matrix(1 0 0 1 540 540)" id="d5fa44a3-d63d-4ba7-bbfd-f64049e85417"  >
</g>
<g transform="matrix(NaN NaN NaN NaN 0 0)"  >
<g style=""   >
</g>
</g>
<g transform="matrix(1.9 0 0 1.9 540 540)"  >
<g style=""   >
		<g transform="matrix(0.96 -0.28 0.28 0.96 -26.12 -120.25)"  >
<rect style="stroke: none; stroke-width: 1; stroke-dasharray: none; stroke-linecap: butt; stroke-dashoffset: 0; stroke-linejoin: miter; stroke-miterlimit: 4; fill: rgb(44,215,255); fill-rule: nonzero; opacity: 1;" vector-effect="non-scaling-stroke"  x="-247.5" y="-22.5" rx="0" ry="0" width="495" height="45" />
</g>
		<g transform="matrix(1 0 0 1 -13.84 -66.41)"  >
<path style="stroke: none; stroke-width: 1; stroke-dasharray: none; stroke-linecap: butt; stroke-dashoffset: 0; stroke-linejoin: miter; stroke-miterlimit: 4; fill: rgb(44,215,255); fill-rule: nonzero; opacity: 1;" vector-effect="non-scaling-stroke"  transform=" translate(-585.82, -383.73)" d="M 386.40028 575.96948 L 316.35377 335.55639 C 315.27237307447865 331.844684693484 317.40464263556646 327.9591041849542 321.11634 326.87768 L 784.8346 191.76928 C 788.5457841797668 190.69162322086137 792.4287743535274 192.82231022796086 793.51331 196.53149000000002 L 855.5692200000001 409.52026 L 853.6490600000001 410.07983 L 791.59315 197.09106 C 790.8167303148891 194.44296728613543 788.0446408239121 192.9217661744189 785.3939300000001 193.6892 L 321.67579 328.7976 C 319.0245777154039 329.57013537024915 317.5015441473208 332.34556415213086 318.27393 334.99682 L 388.32044 575.4099100000001 Z" stroke-linecap="round" />
</g>
		<g transform="matrix(1 0 0 1 167.56 -72.17)"  >
<path style="stroke: none; stroke-width: 1; stroke-dasharray: none; stroke-linecap: butt; stroke-dashoffset: 0; stroke-linejoin: miter; stroke-miterlimit: 4; fill: rgb(44,215,255); fill-rule: nonzero; opacity: 1;" vector-effect="non-scaling-stroke"  transform=" translate(-767.22, -377.97)" d="M 752.93324 410.51 C 750.043596074209 410.5070094262494 747.5014928167201 408.6002110956662 746.6898299999999 405.82689999999997 L 734.9412899999999 365.50365999999997 C 733.9415433470265 362.057692279428 735.9197505652351 358.4527288933925 739.3634099999998 357.44505999999996 L 779.6868999999998 345.69652999999994 C 783.1330898601893 344.6967733510202 786.7381933502859 346.67538647951716 787.7454899999998 350.1193799999999 L 799.494 390.44262 C 800.4937461409154 393.8885852046723 798.5155380922972 397.49354563055726 795.0718800000001 398.50120999999996 L 754.7483900000001 410.24974999999995 C 754.1587394117468 410.42212221493423 753.5475688484916 410.50974976036423 752.93324 410.51 Z" stroke-linecap="round" />
</g>
		<g transform="matrix(1 0 0 1 -225.86 -110.49)"  >
<path style="stroke: none; stroke-width: 1; stroke-dasharray: none; stroke-linecap: butt; stroke-dashoffset: 0; stroke-linejoin: miter; stroke-miterlimit: 4; fill: rgb(44,215,255); fill-rule: nonzero; opacity: 1;" vector-effect="non-scaling-stroke"  transform=" translate(-373.79, -339.65)" d="M 385.31751 336.3 C 385.1967461153515 335.88570581866605 385.0531363279735 335.47841581564126 384.88734000000005 335.08 C 382.55256838157493 329.4132352637724 376.3226283645369 326.416627423465 370.43806008685107 328.1298808405664 C 364.55349180916517 329.84313425766777 360.90571675887634 335.7155739846444 361.97767000000005 341.75 C 362.050379821244 342.17515649699686 362.14720272012624 342.595835299037 362.26767000000007 343.01 C 363.7675682440844 348.1296312622342 368.4626290320508 351.6479399557245 373.7974500000001 351.65 C 374.9314628876036 351.65251347956996 376.0598664865337 351.4908365960481 377.1475500000001 351.16999999999996 C 383.5041014677763 349.312656568491 387.1585282739536 342.6612988375038 385.31751 336.3 Z M 376.58751 349.25 C 371.28646756061426 350.7884961111052 365.74015447511607 347.74694505171055 364.18761 342.45 C 364.0705372569899 342.0356120827358 363.97696488462475 341.6149420531925 363.90734000000003 341.19 C 363.13140037476353 336.2231732705661 366.16453927757055 331.4526924838507 370.99143571411145 330.04822786943697 C 375.8183321506523 328.6437632550233 380.9373931954556 331.0422278805118 382.94734000000005 335.65 C 383.12844891513646 336.0410925519717 383.27896327547774 336.44563813497655 383.3975300000001 336.85999999999996 C 384.9341377543062 342.16147690947696 381.88678487121143 347.705806580948 376.58753 349.25006 Z" stroke-linecap="round" />
</g>
		<g transform="matrix(1 0 0 1 -242.42 -106.34)"  >
<path style="stroke: none; stroke-width: 1; stroke-dasharray: none; stroke-linecap: butt; stroke-dashoffset: 0; stroke-linejoin: miter; stroke-miterlimit: 4; fill: rgb(44,215,255); fill-rule: nonzero; opacity: 1;" vector-effect="non-scaling-stroke"  transform=" translate(-357.23, -343.8)" d="M 355.88508 344.87 C 354.57320861165323 340.3647672277082 356.2630419731009 335.5233119692665 360.09342000000004 332.8129 C 355.2848246931492 332.5785655855534 350.88254663558115 335.4984141676654 349.2280090688346 340.0194767510727 C 347.57347150208795 344.54053933448006 349.05114943421864 349.61222897083405 352.8751158046105 352.5370849742937 C 356.6990821750024 355.46194097775333 361.9807385434562 355.56029668006425 365.91095 352.77984000000004 C 361.22418980079647 352.5509662573568 357.19836337067693 349.3748186581941 355.88508 344.87 Z" stroke-linecap="round" />
</g>
		<g transform="matrix(1 0 0 1 26.71 -49.74)"  >
<path style="stroke: none; stroke-width: 1; stroke-dasharray: none; stroke-linecap: butt; stroke-dashoffset: 0; stroke-linejoin: miter; stroke-miterlimit: 4; fill: rgb(44,215,255); fill-rule: nonzero; opacity: 1;" vector-effect="non-scaling-stroke"  transform=" translate(-626.36, -400.4)" d="M 666.7472 394.43005 C 666.3173725802701 392.88449149385013 665.2905892127935 391.5732917334252 663.8931606689272 390.785449000723 C 662.4957321250608 389.9976062680209 660.8423708157476 389.79779316451993 659.29749 390.23005 L 592.90736 408.8 L 585.7574500000001 410.8 L 630.65736 410.8 L 637.80726 408.8 L 662.55726 401.88 C 665.7697771809461 400.97754622845 667.6446151869021 397.6439783486064 666.7472 394.43005 Z" stroke-linecap="round" />
</g>
		<g transform="matrix(1 0 0 1 -35.51 -56.67)"  >
<path style="stroke: none; stroke-width: 1; stroke-dasharray: none; stroke-linecap: butt; stroke-dashoffset: 0; stroke-linejoin: miter; stroke-miterlimit: 4; fill: rgb(44,215,255); fill-rule: nonzero; opacity: 1;" vector-effect="non-scaling-stroke"  transform=" translate(-564.15, -393.47)" d="M 619.77747 380.56005 C 618.8766926474328 377.3460936144824 615.5415536995423 375.47040558616885 612.32728 376.37005 L 512.70765 404.23005 C 509.831609135537 405.04480491058814 507.97725806754573 407.83262000873253 508.33752999999996 410.80005 L 534.12753 410.80005 L 541.2872 408.80005 L 615.58749 388.02004999999997 C 618.8025743002514 387.11455618794616 620.6772993793643 383.77672424359747 619.77747 380.56005 Z" stroke-linecap="round" />
</g>
		<g transform="matrix(1 0 0 1 35.08 108.65)"  >
<path style="stroke: none; stroke-width: 1; stroke-dasharray: none; stroke-linecap: butt; stroke-dashoffset: 0; stroke-linejoin: miter; stroke-miterlimit: 4; fill: rgb(44,215,255); fill-rule: nonzero; opacity: 1;" vector-effect="non-scaling-stroke"  transform=" translate(-634.74, -558.8)" d="M 876.24147 408.79777 L 393.241 408.79777 C 389.37680468308986 408.80210714940256 386.24533714940253 411.9335746830899 386.241 415.79777 L 386.241 701.79777 C 386.24516116086954 705.6620383271339 389.376731672866 708.7936088391305 393.241 708.79777 L 876.24147 708.79777 C 880.105667598358 708.7934383497743 883.2371383497743 705.6619675983579 883.24147 701.79777 L 883.24147 415.79777 C 883.2369623909888 411.9336454040765 880.1055945959235 408.8022776090113 876.24147 408.79777 Z M 881.24147 701.79777 C 881.2404710567561 704.5587798674565 879.0024798674565 706.796771056756 876.24147 706.79777 L 393.241 706.79777 C 390.4799878468974 706.7967765719795 388.24199342802046 704.5587821531026 388.241 701.79777 L 388.241 415.79777 C 388.24217540812214 413.03683326739656 390.48006326739653 410.79894540812217 393.241 410.79777 L 876.24147 410.79777 C 879.0024067326035 410.79894540812217 881.2402945918778 413.03683326739656 881.24147 415.79777 Z" stroke-linecap="round" />
</g>
		<g transform="matrix(1 0 0 1 -159.42 -14.34)"  >
<path style="stroke: none; stroke-width: 1; stroke-dasharray: none; stroke-linecap: butt; stroke-dashoffset: 0; stroke-linejoin: miter; stroke-miterlimit: 4; fill: rgb(44,215,255); fill-rule: nonzero; opacity: 1;" vector-effect="non-scaling-stroke"  transform=" translate(-440.24, -435.8)" d="M 440.23744 447.8 C 433.61002300203046 447.8 428.23744 442.42741699796954 428.23744 435.8 C 428.23744 429.1725830020305 433.61002300203046 423.8 440.23744 423.8 C 446.8648569979695 423.8 452.23744 429.1725830020305 452.23744 435.8 C 452.2298626999733 442.42427583890037 446.86171583890035 447.7924226999733 440.23744 447.8 Z M 440.23744 425.8 C 434.71459250169204 425.8 430.23744 430.27715250169206 430.23744 435.8 C 430.23744 441.32284749830796 434.71459250169204 445.8 440.23744 445.8 C 445.76028749830795 445.8 450.23744 441.32284749830796 450.23744 435.8 C 450.231212648843 430.279734012575 445.757705987425 425.806227351157 440.23744 425.8 Z" stroke-linecap="round" />
</g>
		<g transform="matrix(1 0 0 1 -177.95 -14.34)"  >
<path style="stroke: none; stroke-width: 1; stroke-dasharray: none; stroke-linecap: butt; stroke-dashoffset: 0; stroke-linejoin: miter; stroke-miterlimit: 4; fill: rgb(44,215,255); fill-rule: nonzero; opacity: 1;" vector-effect="non-scaling-stroke"  transform=" translate(-421.7, -435.8)" d="M 421.58526 435.8 C 421.58599268829056 431.1076654171613 424.5626349454261 426.9321827998397 428.99826 425.40142000000003 C 424.44717522599035 423.8313452292241 419.40387650210755 425.403195778415 416.5507249130462 429.28095717075036 C 413.69757332398495 433.15871856308576 413.69757332398495 438.4412914369143 416.5507249130463 442.3190528292497 C 419.40387650210755 446.19681422158504 424.44717522599035 447.76866477077596 428.99826 446.19859 C 424.56263338321725 444.66782344500103 421.58599146296376 440.49233728480567 421.58526 435.8 Z" stroke-linecap="round" />
</g>
		<g transform="matrix(1 0 0 1 -110.78 104.94)"  >
<path style="stroke: none; stroke-width: 1; stroke-dasharray: none; stroke-linecap: butt; stroke-dashoffset: 0; stroke-linejoin: miter; stroke-miterlimit: 4; fill: rgb(44,215,255); fill-rule: nonzero; opacity: 1;" vector-effect="non-scaling-stroke"  transform=" translate(-488.88, -555.08)" d="M 488.88112 577.57805 C 483.91291255049316 577.572368399658 479.8868016003419 573.5462574495068 479.88112 568.57805 L 479.88112 541.57805 C 479.88112 536.6074872515228 483.91055725152285 532.57805 488.88112 532.57805 C 493.8516827484772 532.57805 497.88112 536.6074872515228 497.88112 541.57805 L 497.88112 568.57805 C 497.87543290095437 573.5462551681829 493.84932516818293 577.5723629009543 488.88112 577.57805 Z" stroke-linecap="round" />
</g>
		<g transform="matrix(1 0 0 1 -86.78 104.94)"  >
<path style="stroke: none; stroke-width: 1; stroke-dasharray: none; stroke-linecap: butt; stroke-dashoffset: 0; stroke-linejoin: miter; stroke-miterlimit: 4; fill: rgb(44,215,255); fill-rule: nonzero; opacity: 1;" vector-effect="non-scaling-stroke"  transform=" translate(-512.88, -555.08)" d="M 512.88112 577.57805 C 507.91291255049316 577.572368399658 503.8868016003419 573.5462574495068 503.88112 568.57805 L 503.88112 541.57805 C 503.88112 536.6074872515228 507.91055725152285 532.57805 512.88112 532.57805 C 517.8516827484772 532.57805 521.88112 536.6074872515228 521.88112 541.57805 L 521.88112 568.57805 C 521.8754329009544 573.5462551681829 517.849325168183 577.5723629009543 512.88112 577.57805 Z" stroke-linecap="round" />
</g>
		<g transform="matrix(1 0 0 1 -62.78 104.94)"  >
<path style="stroke: none; stroke-width: 1; stroke-dasharray: none; stroke-linecap: butt; stroke-dashoffset: 0; stroke-linejoin: miter; stroke-miterlimit: 4; fill: rgb(44,215,255); fill-rule: nonzero; opacity: 1;" vector-effect="non-scaling-stroke"  transform=" translate(-536.88, -555.08)" d="M 536.88112 577.57805 C 531.9129125504932 577.572368399658 527.886801600342 573.5462574495068 527.88112 568.57805 L 527.88112 541.57805 C 527.88112 536.6074872515228 531.9105572515228 532.57805 536.88112 532.57805 C 541.8516827484772 532.57805 545.88112 536.6074872515228 545.88112 541.57805 L 545.88112 568.57805 C 545.8754329009544 573.5462551681829 541.849325168183 577.5723629009543 536.88112 577.57805 Z" stroke-linecap="round" />
</g>
		<g transform="matrix(1 0 0 1 -25.78 104.94)"  >
<path style="stroke: none; stroke-width: 1; stroke-dasharray: none; stroke-linecap: butt; stroke-dashoffset: 0; stroke-linejoin: miter; stroke-miterlimit: 4; fill: rgb(44,215,255); fill-rule: nonzero; opacity: 1;" vector-effect="non-scaling-stroke"  transform=" translate(-573.88, -555.08)" d="M 573.88112 577.57805 C 568.9129125504932 577.572368399658 564.886801600342 573.5462574495068 564.88112 568.57805 L 564.88112 541.57805 C 564.88112 536.6074872515228 568.9105572515228 532.57805 573.88112 532.57805 C 578.8516827484772 532.57805 582.88112 536.6074872515228 582.88112 541.57805 L 582.88112 568.57805 C 582.8754329009544 573.5462551681829 578.849325168183 577.5723629009543 573.88112 577.57805 Z" stroke-linecap="round" />
</g>
		<g transform="matrix(1 0 0 1 -1.78 104.94)"  >
<path style="stroke: none; stroke-width: 1; stroke-dasharray: none; stroke-linecap: butt; stroke-dashoffset: 0; stroke-linejoin: miter; stroke-miterlimit: 4; fill: rgb(44,215,255); fill-rule: nonzero; opacity: 1;" vector-effect="non-scaling-stroke"  transform=" translate(-597.88, -555.08)" d="M 597.88112 577.57805 C 592.9129125504932 577.572368399658 588.886801600342 573.5462574495068 588.88112 568.57805 L 588.88112 541.57805 C 588.88112 536.6074872515228 592.9105572515228 532.57805 597.88112 532.57805 C 602.8516827484772 532.57805 606.88112 536.6074872515228 606.88112 541.57805 L 606.88112 568.57805 C 606.8754329009544 573.5462551681829 602.849325168183 577.5723629009543 597.88112 577.57805 Z" stroke-linecap="round" />
</g>
		<g transform="matrix(1 0 0 1 22.22 104.94)"  >
<path style="stroke: none; stroke-width: 1; stroke-dasharray: none; stroke-linecap: butt; stroke-dashoffset: 0; stroke-linejoin: miter; stroke-miterlimit: 4; fill: rgb(44,215,255); fill-rule: nonzero; opacity: 1;" vector-effect="non-scaling-stroke"  transform=" translate(-621.88, -555.08)" d="M 621.88112 577.57805 C 616.9129125504932 577.572368399658 612.886801600342 573.5462574495068 612.88112 568.57805 L 612.88112 541.57805 C 612.88112 536.6074872515228 616.9105572515228 532.57805 621.88112 532.57805 C 626.8516827484772 532.57805 630.88112 536.6074872515228 630.88112 541.57805 L 630.88112 568.57805 C 630.8754329009544 573.5462551681829 626.849325168183 577.5723629009543 621.88112 577.57805 Z" stroke-linecap="round" />
</g>
		<g transform="matrix(1 0 0 1 59.22 104.94)"  >
<path style="stroke: none; stroke-width: 1; stroke-dasharray: none; stroke-linecap: butt; stroke-dashoffset: 0; stroke-linejoin: miter; stroke-miterlimit: 4; fill: rgb(44,215,255); fill-rule: nonzero; opacity: 1;" vector-effect="non-scaling-stroke"  transform=" translate(-658.88, -555.08)" d="M 658.88112 577.57805 C 653.9129125504932 577.572368399658 649.886801600342 573.5462574495068 649.88112 568.57805 L 649.88112 541.57805 C 649.88112 536.6074872515228 653.9105572515228 532.57805 658.88112 532.57805 C 663.8516827484772 532.57805 667.88112 536.6074872515228 667.88112 541.57805 L 667.88112 568.57805 C 667.8754329009544 573.5462551681829 663.849325168183 577.5723629009543 658.88112 577.57805 Z" stroke-linecap="round" />
</g>
		<g transform="matrix(1 0 0 1 83.22 104.94)"  >
<path style="stroke: none; stroke-width: 1; stroke-dasharray: none; stroke-linecap: butt; stroke-dashoffset: 0; stroke-linejoin: miter; stroke-miterlimit: 4; fill: rgb(44,215,255); fill-rule: nonzero; opacity: 1;" vector-effect="non-scaling-stroke"  transform=" translate(-682.88, -555.08)" d="M 682.88112 577.57805 C 677.9129125504932 577.572368399658 673.886801600342 573.5462574495068 673.88112 568.57805 L 673.88112 541.57805 C 673.88112 536.6074872515228 677.9105572515228 532.57805 682.88112 532.57805 C 687.8516827484772 532.57805 691.88112 536.6074872515228 691.88112 541.57805 L 691.88112 568.57805 C 691.8754329009544 573.5462551681829 687.849325168183 577.5723629009543 682.88112 577.57805 Z" stroke-linecap="round" />
</g>
		<g transform="matrix(1 0 0 1 107.22 104.94)"  >
<path style="stroke: none; stroke-width: 1; stroke-dasharray: none; stroke-linecap: butt; stroke-dashoffset: 0; stroke-linejoin: miter; stroke-miterlimit: 4; fill: rgb(44,215,255); fill-rule: nonzero; opacity: 1;" vector-effect="non-scaling-stroke"  transform=" translate(-706.88, -555.08)" d="M 706.88112 577.57805 C 701.9129125504932 577.572368399658 697.886801600342 573.5462574495068 697.88112 568.57805 L 697.88112 541.57805 C 697.88112 536.6074872515228 701.9105572515228 532.57805 706.88112 532.57805 C 711.8516827484772 532.57805 715.88112 536.6074872515228 715.88112 541.57805 L 715.88112 568.57805 C 715.8754329009544 573.5462551681829 711.849325168183 577.5723629009543 706.88112 577.57805 Z" stroke-linecap="round" />
</g>
		<g transform="matrix(1 0 0 1 144.22 104.94)"  >
<path style="stroke: none; stroke-width: 1; stroke-dasharray: none; stroke-linecap: butt; stroke-dashoffset: 0; stroke-linejoin: miter; stroke-miterlimit: 4; fill: rgb(44,215,255); fill-rule: nonzero; opacity: 1;" vector-effect="non-scaling-stroke"  transform=" translate(-743.88, -555.08)" d="M 743.88112 577.57805 C 738.9129125504932 577.572368399658 734.886801600342 573.5462574495068 734.88112 568.57805 L 734.88112 541.57805 C 734.88112 536.6074872515228 738.9105572515228 532.57805 743.88112 532.57805 C 748.8516827484772 532.57805 752.88112 536.6074872515228 752.88112 541.57805 L 752.88112 568.57805 C 752.8754329009544 573.5462551681829 748.849325168183 577.5723629009543 743.88112 577.57805 Z" stroke-linecap="round" />
</g>
		<g transform="matrix(1 0 0 1 168.22 104.94)"  >
<path style="stroke: none; stroke-width: 1; stroke-dasharray: none; stroke-linecap: butt; stroke-dashoffset: 0; stroke-linejoin: miter; stroke-miterlimit: 4; fill: rgb(44,215,255); fill-rule: nonzero; opacity: 1;" vector-effect="non-scaling-stroke"  transform=" translate(-767.88, -555.08)" d="M 767.88112 577.57805 C 762.9129125504932 577.572368399658 758.886801600342 573.5462574495068 758.88112 568.57805 L 758.88112 541.57805 C 758.88112 536.6074872515228 762.9105572515228 532.57805 767.88112 532.57805 C 772.8516827484772 532.57805 776.88112 536.6074872515228 776.88112 541.57805 L 776.88112 568.57805 C 776.8754329009544 573.5462551681829 772.849325168183 577.5723629009543 767.88112 577.57805 Z" stroke-linecap="round" />
</g>
		<g transform="matrix(1 0 0 1 192.22 104.94)"  >
<path style="stroke: none; stroke-width: 1; stroke-dasharray: none; stroke-linecap: butt; stroke-dashoffset: 0; stroke-linejoin: miter; stroke-miterlimit: 4; fill: rgb(44,215,255); fill-rule: nonzero; opacity: 1;" vector-effect="non-scaling-stroke"  transform=" translate(-791.88, -555.08)" d="M 791.88112 577.57805 C 786.9129125504932 577.572368399658 782.886801600342 573.5462574495068 782.88112 568.57805 L 782.88112 541.57805 C 782.88112 536.6074872515228 786.9105572515228 532.57805 791.88112 532.57805 C 796.8516827484772 532.57805 800.88112 536.6074872515228 800.88112 541.57805 L 800.88112 568.57805 C 800.8754329009544 573.5462551681829 796.849325168183 577.5723629009543 791.88112 577.57805 Z" stroke-linecap="round" />
</g>
		<g transform="matrix(1 0 0 1 -114.48 221.55)"  >
<path style="stroke: none; stroke-width: 1; stroke-dasharray: none; stroke-linecap: butt; stroke-dashoffset: 0; stroke-linejoin: miter; stroke-miterlimit: 4; fill: rgb(44,215,255); fill-rule: nonzero; opacity: 1;" vector-effect="non-scaling-stroke"  transform=" translate(-485.18, -671.7)" d="M 549.89914 677.745 L 420.45883 677.745 C 417.1189652952632 677.745 414.41146999999995 675.0375047047368 414.41146999999995 671.69764 C 414.41146999999995 668.3577752952632 417.1189652952632 665.65028 420.45883 665.65028 L 549.89914 665.65028 C 553.2390047047368 665.65028 555.9465 668.3577752952632 555.9465 671.69764 C 555.9465 675.0375047047368 553.2390047047368 677.745 549.89914 677.745 Z" stroke-linecap="round" />
</g>
		<g transform="matrix(1 0 0 1 -114.48 195.55)"  >
<path style="stroke: none; stroke-width: 1; stroke-dasharray: none; stroke-linecap: butt; stroke-dashoffset: 0; stroke-linejoin: miter; stroke-miterlimit: 4; fill: rgb(44,215,255); fill-rule: nonzero; opacity: 1;" vector-effect="non-scaling-stroke"  transform=" translate(-485.18, -645.7)" d="M 508.39914 651.745 L 461.95883 651.745 C 458.6189652952632 651.745 455.91146999999995 649.0375047047368 455.91146999999995 645.69764 C 455.91146999999995 642.3577752952632 458.6189652952632 639.65028 461.95883 639.65028 L 508.39914 639.65028 C 511.7390047047368 639.65028 514.4465 642.3577752952632 514.4465 645.69764 C 514.4465 649.0375047047368 511.7390047047368 651.745 508.39914 651.745 Z" stroke-linecap="round" />
</g>
		<g transform="matrix(1 0 0 1 34.72 19.44)"  >
<rect style="stroke: none; stroke-width: 1; stroke-dasharray: none; stroke-linecap: butt; stroke-dashoffset: 0; stroke-linejoin: miter; stroke-miterlimit: 4; fill: rgb(44,215,255); fill-rule: nonzero; opacity: 1;" vector-effect="non-scaling-stroke"  x="-246.5" y="-1" rx="0" ry="0" width="493" height="2" />
</g>
</g>
</g>
<g transform="matrix(NaN NaN NaN NaN 0 0)"  >
<g style=""   >
</g>
</g>
</svg>