<svg width="47" height="47" viewBox="0 0 47 47" fill="none" xmlns="http://www.w3.org/2000/svg">
<circle cx="23.5" cy="23.5" r="23.5" fill="#D9D9D9"/>
<path d="M11.3333 38C11.3333 38 9 38 9 35.6667C9 33.3333 11.3333 26.3333 23 26.3333C34.6667 26.3333 37 33.3333 37 35.6667C37 38 34.6667 38 34.6667 38H11.3333ZM23 24C24.8565 24 26.637 23.2625 27.9497 21.9497C29.2625 20.637 30 18.8565 30 17C30 15.1435 29.2625 13.363 27.9497 12.0503C26.637 10.7375 24.8565 10 23 10C21.1435 10 19.363 10.7375 18.0503 12.0503C16.7375 13.363 16 15.1435 16 17C16 18.8565 16.7375 20.637 18.0503 21.9497C19.363 23.2625 21.1435 24 23 24Z" fill="white"/>
</svg>
