<svg width="750" height="750" xmlns="http://www.w3.org/2000/svg" version="1.1">
 <desc>Created with Sketch.</desc>

 <g>
  <title>Layer 1</title>
  <g fill-rule="evenodd" fill="none" id="Page-1">
   <g fill-rule="nonzero" id="amex">
    <rect rx="40" height="471" width="750" y="0" x="0" fill="#2557D6" id="Rectangle-1"/>
    <path fill="#FFFFFF" id="Path" d="m0.00269,221.18508l36.02416,0l8.12273,-19.51002l18.18502,0l8.10144,19.51002l70.88033,0l0,-14.91599l6.32685,14.97957l36.79572,0l6.32685,-15.20212l0,15.13854l176.15122,0l-0.0825,-32.02567l3.40819,0c2.38654,0.0822 3.0836,0.30203 3.0836,4.22575l0,27.79992l91.10602,0l0,-7.45535c7.3485,3.92107 18.77832,7.45535 33.81854,7.45535l38.32822,0l8.20255,-19.51002l18.18501,0l8.02164,19.51002l73.86016,0l0,-18.53239l11.18506,18.53239l59.18711,0l0,-122.50719l-58.57518,0l0,14.46825l-8.20255,-14.46825l-60.10501,0l0,14.46825l-7.53208,-14.46825l-81.1874,0c-13.59021,0 -25.53618,1.88901 -35.18607,7.15332l0,-7.15332l-56.02636,0l0,7.15332c-6.1406,-5.42592 -14.5081,-7.15332 -23.81213,-7.15332l-204.68587,0l-13.73389,31.64151l-14.1037,-31.64151l-64.471,0l0,14.46825l-7.08245,-14.46825l-54.9834,0l-25.53352,58.24656l0,64.26063l0.0026,0l0.00009,0zm227.39688,-17.67072l-21.61485,0l-0.0798,-68.79372l-30.57264,68.79372l-18.51228,0l-30.65246,-68.85466l0,68.85466l-42.88311,0l-8.10145,-19.59214l-43.89946,0l-8.18392,19.59214l-22.89955,0l37.75619,-87.83744l31.32559,0l35.8592,83.16394l0,-83.16394l34.41186,0l27.5928,59.58714l25.34728,-59.58714l35.1036,0l0,87.83744l0.003,0zm-159.62236,-37.82149l-14.43094,-35.01681l-14.34848,35.01681l28.77942,0zm245.64226,37.82149l-70.43336,0l0,-87.83744l70.43336,0l0,18.29129l-49.34831,0l0,15.83269l48.16435,0l0,18.00516l-48.16435,0l0,17.54153l49.34831,0l0,18.16677zm99.25581,-64.18115c0,14.00461 -9.38651,21.24005 -14.85665,23.41254c4.61343,1.74859 8.55374,4.83776 10.42945,7.39706c2.97717,4.36883 3.49067,8.27135 3.49067,16.11616l0,17.25539l-21.26597,0l-0.0798,-11.07704c0,-5.28552 0.50817,-12.88658 -3.32838,-17.11233c-3.08094,-3.08918 -7.77686,-3.75947 -15.36746,-3.75947l-22.63351,0l0,31.94884l-21.08238,0l0,-87.83744l48.49427,0c10.77532,0 18.71447,0.28348 25.53087,4.20721c6.67005,3.92373 10.6689,9.65168 10.6689,19.44908l-0.00001,0zm-26.65251,13.04311c-2.89737,1.75124 -6.32418,1.80952 -10.42944,1.80952l-25.61335,0l0,-19.51001l25.96188,0c3.67425,0 7.50813,0.16427 9.99843,1.58433c2.73507,1.27965 4.4272,4.00321 4.4272,7.76532c0,3.83895 -1.60965,6.92813 -4.34472,8.35084zm60.46631,51.13804l-21.51339,0l0,-87.83744l21.51339,0l0,87.83744zm249.73948,0l-29.87824,0l-39.96447,-65.92709l0,65.92709l-42.93898,0l-8.20521,-19.59214l-43.79835,0l-7.96044,19.59214l-24.6715,0c-10.24853,0 -23.22415,-2.25727 -30.57265,-9.71527c-7.40969,-7.45799 -11.26486,-17.56006 -11.26486,-33.53316c0,-13.02698 2.30405,-24.93593 11.36597,-34.34652c6.81638,-7.01025 17.49061,-10.24249 32.01999,-10.24249l20.41192,0l0,18.82117l-19.98356,0c-7.69438,0 -12.03909,1.13924 -16.22418,5.20338c-3.59443,3.69853 -6.06078,10.69024 -6.06078,19.89682c0,9.41058 1.87836,16.19564 5.79739,20.62804c3.24589,3.47599 9.14439,4.53044 14.69434,4.53044l9.46898,0l29.71594,-69.0772l31.59165,0l35.69691,83.08181l0,-83.08181l32.10247,0l37.0618,61.17411l0,-61.17411l21.59586,0l0,87.83479zm-128.15805,-37.82149l-14.59058,-35.01681l-14.51077,35.01681l29.10135,0z"/>
    <path fill="#FFFFFF" id="path13" d="m749.95644,343.76716c-5.12159,7.458 -15.1014,11.23866 -28.6118,11.23866l-40.71741,0l0,-18.83972l40.55246,0c4.02279,0 6.83767,-0.52723 8.53246,-2.17514c1.46864,-1.35913 2.49295,-3.33292 2.49295,-5.7306c0,-2.55929 -1.02431,-4.59137 -2.57543,-5.81008c-1.52983,-1.34059 -3.75673,-1.94995 -7.42832,-1.94995c-19.79733,-0.67028 -44.49543,0.60936 -44.49543,-27.19319c0,-12.74351 8.12539,-26.15731 30.25072,-26.15731l41.99715,0l0.00265,-17.48058l-39.02262,0c-11.7757,0 -20.32944,2.80834 -26.38756,7.1745l0,-7.1745l-57.71582,0c-9.22953,0 -20.06338,2.27846 -25.18765,7.1745l0,-7.1745l-103.06528,0l0,7.1745c-8.20255,-5.89221 -22.04285,-7.1745 -28.43088,-7.1745l-67.98297,0l0,7.1745c-6.48914,-6.25782 -20.92009,-7.1745 -29.71594,-7.1745l-76.08442,0l-17.41078,18.76288l-16.30666,-18.76288l-113.65437,0l0,122.59196l111.51527,0l17.94024,-19.05962l16.89997,19.05962l68.73857,0.0609l0,-28.83847l6.75785,0c9.12045,0.14041 19.87715,-0.22519 29.3674,-4.31053l0,33.08541l56.69683,0l0,-31.95148l2.73506,0c3.49068,0 3.83389,0.14307 3.83389,3.6164l0,28.33243l172.23487,0c10.93495,0 22.36477,-2.78714 28.69427,-7.8448l0,7.8448l54.63221,0c11.36864,0 22.47121,-1.58698 30.91852,-5.65112l0,-22.83763l0,0.00004zm-341.50343,-47.1545c0,24.40606 -18.28612,29.44518 -36.71591,29.44518l-26.30775,0l0,29.46901l-40.9808,0l-25.96188,-29.08486l-26.98087,29.08486l-83.5154,0l0,-87.85863l84.80046,0l25.94058,28.79872l26.81858,-28.79872l67.37104,0c16.73234,0 35.53195,4.61256 35.53195,28.94444zm-167.6252,40.43389l-51.83861,0l0,-17.48059l46.28865,0l0,-17.92568l-46.28865,0l0,-15.9731l52.86027,0l23.06185,25.60359l-24.08351,25.77578zm83.52669,10.06013l-32.3712,-35.78778l32.3712,-34.6512l0,70.43898zm47.8727,-39.06551l-27.24693,0l0,-22.37399l27.4917,0c7.61191,0 12.8958,3.08918 12.8958,10.77238c0,7.5984 -5.03912,11.60161 -13.14057,11.60161zm142.74333,-40.37302l70.36951,0l0,18.16949l-49.37226,0l0,15.9731l48.16702,0l0,17.92568l-48.16702,0l0,17.48059l49.37226,0.0794l0,18.23037l-70.36951,0l0,-87.85863zm-27.05329,47.02915c4.69325,1.72475 8.52979,4.81657 10.32835,7.37587c2.97717,4.28934 3.40819,8.29254 3.49332,16.03668l0,17.417l-21.16751,0l0,-10.99227c0,-5.2855 0.51083,-13.11176 -3.4082,-17.1971c-3.08094,-3.14746 -7.77685,-3.89988 -15.46857,-3.89988l-22.5324,0l0,32.08925l-21.18614,0l0,-87.85863l48.67784,0c10.67423,0 18.44843,0.46894 25.36858,4.14627c6.65409,4.00321 10.83917,9.48742 10.83917,19.51001c-0.003,14.02315 -9.39449,21.17912 -14.94444,23.3728zm-11.91825,-11.10708c-2.8202,1.66646 -6.30822,1.80953 -10.41082,1.80953l-25.61334,0l0,-19.73257l25.96187,0c3.75407,0 7.5108,0.0794 10.06229,1.58698c2.73241,1.42271 4.366,4.14363 4.366,7.90309c0,3.75947 -1.63359,6.78771 -4.366,8.43297zm190.3364,5.59638c4.10528,4.23106 6.30556,9.5722 6.30556,18.61452c0,18.90066 -11.85817,27.72308 -33.12147,27.72308l-41.06595,0l0,-18.83971l40.901,0c3.99884,0 6.83501,-0.52723 8.61227,-2.17515c1.45001,-1.35913 2.49029,-3.33291 2.49029,-5.73059c0,-2.55931 -1.12542,-4.59137 -2.57276,-5.81009c-1.61232,-1.34059 -3.83655,-1.94994 -7.50814,-1.94994c-19.71751,-0.67029 -44.41029,0.60935 -44.41029,-27.19321c0,-12.7435 8.04025,-26.15729 30.14429,-26.15729l42.26853,0l0,18.6993l-38.67676,0c-3.83387,0 -6.32684,0.14307 -8.44732,1.58698c-2.30937,1.42271 -3.16608,3.53426 -3.16608,6.3214c0,3.31438 1.96085,5.569 4.61344,6.54397c2.22424,0.77097 4.61343,0.99616 8.2052,0.99616l11.35002,0.30468c11.44578,0.27818 19.30245,2.24932 24.07817,7.06589zm83.66461,-23.51942l-38.42665,0c-3.83655,0 -6.38538,0.14307 -8.53247,1.58698c-2.22423,1.42271 -3.08093,3.53427 -3.08093,6.32142c0,3.31436 1.87836,5.56898 4.61076,6.54395c2.22424,0.77097 4.61344,0.99617 8.12539,0.99617l11.42717,0.30468c11.53092,0.28349 19.22796,2.25727 23.92121,7.07119c0.85404,0.67029 1.36754,1.42271 1.95552,2.17513l0,-24.99952z"/>
   </g>
  </g>
  <text transform="matrix(5.29363 0 0 4.7933 -1301.45 -1967.92)" stroke="null" xml:space="preserve" text-anchor="start" font-family="Sans-serif" font-size="24" id="svg_1" y="532" x="295.5" stroke-width="0" fill="#000000">Terminal</text>
 </g>
</svg>