<?xml version="1.0" encoding="utf-8"?>
<!-- Generator: Adobe Illustrator 26.0.3, SVG Export Plug-In . SVG Version: 6.00 Build 0)  -->
<svg version="1.0" id="katman_1" xmlns="http://www.w3.org/2000/svg" xmlns:xlink="http://www.w3.org/1999/xlink" x="0px" y="0px"
	 viewBox="0 0 600 450" style="enable-background:new 0 0 600 450;" xml:space="preserve">
<path id="Path_3215" d="M224.1,356.9v-17.8c9.9,0.2,19.8,1.4,29.4,3.5c9.2,2.1,18.6,3.2,28.1,3.2c9.3,0.1,18.6-1,27.6-3.5
	c0.2-0.1,22.1-8.7,45.3-15.2c24.6-6.9,34.1-20.7,34.6-21.4l42.9-74.2c0.8-1.3,0.9-2.9,0.5-4.4c-0.5-1.5-1.5-2.6-2.9-3.3
	c-3.6-1.6-8.1-1.6-13.4,0.2c-3.6,1.2-7,3-10.1,5.3c-3.7-1-7.5-0.8-11.1,0.6c-2.2,0.7-4.3,1.7-6.2,2.9c-3.7-1-7.5-0.8-11.1,0.6
	c-2.1,0.7-4.1,1.6-6,2.7c-3.2-0.6-6.5-0.4-9.6,0.7c-4.7,1.6-9,4.2-12.5,7.7c-8.4,8.2-19.8,23-28,34.2c-6.7,2.7-13.8,4.1-21,4.1h-0.3
	c-6.8,0-14.6-3.3-22.2-6.9c-21.4-10.1-44.2-2.7-54,1.5v-17.2c0-1.8-1.5-3.3-3.3-3.3l0,0h-48.3c-10.2,0-18.4,8.3-18.4,18.4v81.4
	c0,1.8,1.5,3.3,3.3,3.3c0,0,0,0,0,0h63.5C222.6,360.2,224.1,358.7,224.1,356.9z M397,236.2c2.2-0.8,4.5-1.1,6.8-0.7L386.9,250
	c-9.6,11.9-19,25.1-23.8,31.9c-1.4-1.7-3-3.1-4.8-4.3c1.7-2.4,3.8-5.3,6.2-8.4c6.9-9.1,15.7-20.3,22.4-26.8
	C389.8,239.5,393.2,237.4,397,236.2z M379.7,239.6c2-0.8,4.2-1,6.4-0.7l-17.5,14.4c-6,7.4-11.9,15.4-16.2,21.3
	c-1.7-0.6-3.5-1.1-5.4-1.4c1.4-1.8,2.8-3.8,4.3-5.7c5.6-7.6,11.8-14.9,18.4-21.7C372.5,243,375.9,240.9,379.7,239.6L379.7,239.6z
	 M335,271.6c5.8-7.9,12.2-15.3,19-22.4c2.8-2.8,6.2-4.9,10-6.2c1.6-0.6,3.2-0.8,4.9-0.7l-19.6,16.9c-3.7,4.8-7.3,9.6-10.4,13.8
	c-2.1,0.3-4.1,0.8-6.1,1.4C333.6,273.6,334.3,272.6,335,271.6z M275.2,281.9c8.2,3.9,16.9,7.5,24.9,7.5c8.4,0,16.7-1.6,24.5-4.8
	c0,0,0.1,0,0.1,0c1.1-0.4,2.3-0.9,3.4-1.3c8.3-3.3,14.4-5.7,23.5-1.9c2.8,1.1,5.3,3,7.1,5.5c0.4,0.6,0.7,1.2,0.8,1.9l0,0.1
	c0.1,0.5,0.1,1-0.1,1.5c-0.6,1.7-2.9,3.2-6.6,4.3c-6.5,1.7-13,2.8-19.7,3.5c-15,2-32,4.2-44.3,14c-1.4,1.1-1.6,3.2-0.5,4.6
	c0,0,0,0,0,0c1.1,1.4,3.2,1.6,4.6,0.5c0,0,0,0,0,0c10.8-8.7,26.9-10.8,41-12.6c7-0.7,13.9-2,20.7-3.7c5.8-1.8,9.5-4.6,10.9-8.4
	c0.4-1.1,0.6-2.3,0.5-3.5c4.2-6.1,26.6-38.1,40.8-51.8c3.2-3.1,7-5.5,11.2-6.9c2.4-0.9,4.9-1.2,7.4-0.8l-42.1,72.8
	c-0.1,0.1-8.7,12.4-30.8,18.6c-23.6,6.6-45.7,15.3-45.7,15.3c-0.2,0.1-22.5,6.9-52,0.1c-10-2.2-20.3-3.5-30.5-3.7l-0.4-47.8
	C230.6,281.7,254.3,272,275.2,281.9L275.2,281.9z M217.5,353.6h-57v-78.2c0-6.6,5.3-11.9,11.9-11.9h45.1L217.5,353.6z"/>
<path id="Path_3216" d="M199.9,302.1c7.8,0,14.1-6.3,14.1-14.1c0-7.8-6.3-14.1-14.1-14.1c-7.8,0-14.1,6.3-14.1,14.1
	C185.8,295.8,192.1,302.1,199.9,302.1z M199.9,280.5c4.2,0,7.5,3.4,7.6,7.6c0,4.2-3.4,7.5-7.6,7.6c-4.2,0-7.5-3.4-7.6-7.6
	C192.3,283.9,195.7,280.5,199.9,280.5L199.9,280.5z"/>
<path id="Path_3217" d="M294,193.1c5.9,0,10.6-4.8,10.6-10.6c0-5.9-4.8-10.6-10.6-10.6c-5.9,0-10.6,4.8-10.6,10.6
	C283.4,188.4,288.1,193.1,294,193.1z M294,178.4c2.3,0,4.1,1.8,4.1,4.1c0,2.3-1.8,4.1-4.1,4.1c-2.3,0-4.1-1.8-4.1-4.1
	C289.9,180.3,291.8,178.4,294,178.4L294,178.4z"/>
<path id="Path_3218" d="M205.8,171.9c-5.9,0-10.6,4.8-10.6,10.6c0,5.9,4.8,10.6,10.6,10.6c5.9,0,10.6-4.8,10.6-10.6
	C216.4,176.6,211.6,171.9,205.8,171.9z M205.8,186.6c-2.3,0-4.1-1.8-4.1-4.1c0-2.3,1.8-4.1,4.1-4.1c2.3,0,4.1,1.8,4.1,4.1
	C209.8,184.8,208,186.6,205.8,186.6z"/>
<path id="Path_3219" d="M428.1,90.6h-48.3c-1.8,0-3.3,1.5-3.3,3.3c0,0,0,0,0,0v17.8c-9.9-0.2-19.8-1.4-29.4-3.5
	c-31.3-7.3-54.5-0.1-55.7,0.3c-0.2,0.1-22.1,8.7-45.3,15.2c-1.6,0.5-3.2,0.9-4.7,1.5h-84.4c-1.8,0-3.3,1.5-3.3,3.3c0,0,0,0,0,0
	v108.3c0,1.3,0.8,2.5,2,3c0.4,0.2,0.8,0.3,1.3,0.3h185.9c0.7,0,1.3-0.2,1.8-0.6c0.9-0.6,1.4-1.6,1.4-2.7v-56.8
	c10.5-0.2,20.8-2.4,30.4-6.6v17.2c0,1.8,1.5,3.3,3.3,3.3c0,0,0,0,0,0h63.5c1.8,0,3.3-1.5,3.3-3.3V109
	C446.6,98.8,438.3,90.6,428.1,90.6z M339.5,233.4H160.2V131.6h148.6c-6.7,4.1-15.5,7.1-24.6,9.5h-96.6c-1.8,0-3.3,1.5-3.3,3.3
	c0,0,0,0,0,0c0,7.4-6,13.4-13.4,13.4c-1.8,0-3.3,1.5-3.3,3.3V204c0,1.8,1.5,3.3,3.3,3.3c7.4,0,13.4,6,13.4,13.4
	c0,1.8,1.5,3.3,3.3,3.3c0,0,0,0,0,0h124.5c1.8,0,3.3-1.5,3.3-3.3c0-7.4,6-13.4,13.4-13.4c1.8,0,3.3-1.5,3.3-3.3v-25.8
	c2.5,0.6,5,1.1,7.5,1.3L339.5,233.4z M235,158.2c-0.9,2.5-0.7,5.3,0.5,7.7c-4.8,4.2-7.6,10.2-7.6,16.6c0,12.1,9.9,22,22,22
	c12.1,0,22-9.9,22-22c0-2.5-0.4-4.9-1.2-7.3c1.4-0.5,2.8-1.1,4.2-1.7c6.8-2.7,14.4-5.8,25.5-5.7c6.8,0,14.6,3.3,22.2,6.9
	c1,0.5,2,0.9,3,1.3V201c-8.4,1.4-15,8-16.4,16.4H190.7c-1.4-8.4-8-15-16.4-16.4v-36.9c8.4-1.4,15-8,16.4-16.4h63.8
	c-3.2,0.7-6.1,1.4-8.6,2.2C240,151.6,236.3,154.4,235,158.2L235,158.2z M239.5,171.1c2,1.9,4.4,3.3,6.9,4.4
	c5.6,2.5,11.9,3.1,17.9,1.7c0.6,1.7,1,3.5,1,5.4c0,8.5-6.9,15.4-15.4,15.4c-8.5,0-15.4-6.9-15.4-15.4
	C234.4,178.2,236.3,174,239.5,171.1L239.5,171.1z M346.1,173.2c-2.2,0-4.4-0.1-6.6-0.4c-4.9-0.6-9.7-1.9-14.2-4
	c-8.2-3.9-16.9-7.5-24.9-7.5c-12.2-0.1-20.6,3.3-27.9,6.2c-8.3,3.3-14.4,5.7-23.5,1.9c-2.8-1.1-5.3-3-7.1-5.5c-0.8-1-1-2.3-0.7-3.5
	c0.6-1.7,2.9-3.2,6.6-4.3c4.4-1.3,10.3-2.5,17.1-3.9c19.1-3.9,42.8-8.7,54.7-20.6c0.4-0.4,0.7-0.7,1-1.1c1.2-1.3,1.1-3.4-0.2-4.6
	c0,0,0,0,0,0c-0.1-0.1-0.3-0.2-0.4-0.3c-0.1,0-0.1-0.1-0.1-0.1c-0.1-0.1-0.2-0.1-0.4-0.2c-0.1,0-0.2-0.1-0.3-0.1l0,0
	c-0.1,0-0.2-0.1-0.3-0.1c-0.1,0-0.1,0-0.2,0l-0.2,0h-54.4c16.7-5.4,29.7-10.5,29.7-10.5c0.2-0.1,22.5-6.9,52-0.1
	c7,1.6,14.2,2.7,21.4,3.2l9.1-2l0.4,50.3C367,170.5,356.6,173,346.1,173.2L346.1,173.2z M440,187.2h-57V97.1h45.1
	c6.6,0,11.9,5.3,11.9,11.9L440,187.2z"/>
<path id="Path_3220" d="M400.7,148.6c-7.8,0-14.1,6.3-14.1,14.1c0,7.8,6.3,14.1,14.1,14.1c7.8,0,14.1-6.3,14.1-14.1
	C414.8,154.9,408.5,148.6,400.7,148.6z M400.7,170.3c-4.2,0-7.5-3.4-7.6-7.6c0-4.2,3.4-7.5,7.6-7.6c4.2,0,7.5,3.4,7.6,7.6
	C408.3,166.9,404.9,170.3,400.7,170.3L400.7,170.3z"/>
</svg>
