<svg width="750" height="471" xmlns="http://www.w3.org/2000/svg" xmlns:undefined="http://www.bohemiancoding.com/sketch/ns" xml:space="preserve" enable-background="new 0 0 750 471" version="1.1">
 <title>Slice 1</title>
 <defs>
  <linearGradient y2="0.50059" x2="1.00032" y1="0.50059" x1="0.00031" id="path3496_1_">
   <stop stop-color="#007B40" offset="0"/>
   <stop stop-color="#55B330" offset="1"/>
  </linearGradient>
  <linearGradient y2="0.49967" x2="1.00018" y1="0.49967" x1="0.00687" id="path3498_1_">
   <stop stop-color="#1D2970" offset="0"/>
   <stop stop-color="#006DBA" offset="1"/>
  </linearGradient>
  <linearGradient y2="0.50061" x2="0.99836" y1="0.50061" x1="-0.00023" id="path3500_1_">
   <stop stop-color="#6E2B2F" offset="0"/>
   <stop stop-color="#E30138" offset="1"/>
  </linearGradient>
 </defs>
 <desc>Created with Sketch.</desc>
 <g>
  <title>Layer 1</title>
  <g id="svg_1">
   <path d="m617.242,314.766c0,41.615 -33.729,75.36 -75.357,75.36l-409.126,0l0,-297.881c0,-41.626 33.73,-75.371 75.364,-75.371l409.12,0l0,297.892l-0.001,0l0,0z" fill="#FFFFFF"  id="path3494"/>
   <path d="m483.86,210.045c11.686,0.254 23.439,-0.516 35.078,0.4c11.787,2.199 14.627,20.043 4.156,25.887c-7.145,3.85 -15.633,1.434 -23.379,2.113l-15.855,0l0,-28.4l0,0zm41.834,-32.145c2.596,9.164 -6.238,17.392 -15.064,16.13l-26.77,0c0.188,-8.642 -0.367,-18.022 0.273,-26.209c10.723,0.302 21.547,-0.616 32.209,0.48c4.58,1.151 8.414,4.917 9.352,9.599l0,0zm64.425,-135.903c0.498,17.501 0.072,35.927 0.215,53.783c-0.033,72.596 0.07,145.195 -0.057,217.789c-0.469,27.207 -24.582,50.847 -51.6,51.39c-27.045,0.11 -54.094,0.017 -81.143,0.047l0,-109.75c29.471,-0.153 58.957,0.308 88.416,-0.231c13.666,-0.858 28.635,-9.875 29.271,-24.914c1.609,-15.103 -12.631,-25.551 -26.152,-27.201c-5.197,-0.135 -5.045,-1.515 0,-2.117c12.895,-2.787 23.021,-16.133 19.227,-29.499c-3.234,-14.058 -18.771,-19.499 -31.695,-19.472c-26.352,-0.179 -52.709,-0.025 -79.063,-0.077c0.17,-20.489 -0.355,-41 0.283,-61.474c2.088,-26.716 26.807,-48.748 53.447,-48.27c26.287,-0.003 52.57,-0.003 78.851,-0.004l0,0z" fill="url(#path3496_1_)"  id="path3496"/>
   <path d="m159.742,93.041c0.673,-27.164 24.888,-50.611 51.872,-51.008c26.945,-0.083 53.894,-0.012 80.839,-0.036c-0.074,90.885 0.146,181.776 -0.111,272.657c-1.038,26.834 -24.989,49.834 -51.679,50.309c-26.996,0.098 -53.995,0.014 -80.992,0.041l0,-113.453c26.223,6.195 53.722,8.832 80.474,4.723c15.991,-2.574 33.487,-10.426 38.901,-27.016c3.984,-14.191 1.741,-29.126 2.334,-43.691l0,-33.825l-46.297,0c-0.208,22.371 0.426,44.781 -0.335,67.125c-1.248,13.734 -14.849,22.46 -27.802,21.994c-16.064,0.17 -47.897,-11.641 -47.897,-11.641c-0.08,-41.915 0.466,-94.406 0.693,-136.179l0,0z" fill="url(#path3498_1_)"  id="path3498"/>
   <path d="m309.721,165.39c-2.437,0.517 -0.491,-8.301 -1.114,-11.646c0.166,-21.15 -0.346,-42.323 0.284,-63.458c2.082,-26.829 26.991,-48.916 53.738,-48.288l78.767,0c-0.074,90.885 0.145,181.775 -0.111,272.657c-1.039,26.834 -24.992,49.833 -51.682,50.309c-26.998,0.101 -53.998,0.015 -80.997,0.042l0,-124.299c18.44,15.129 43.5,17.484 66.472,17.525c17.318,-0.006 34.535,-2.676 51.353,-6.67l0,-22.772c-18.953,9.446 -41.234,15.446 -62.244,10.019c-14.656,-3.649 -25.294,-17.813 -25.057,-32.937c-1.698,-15.729 7.522,-32.335 22.979,-37.011c19.192,-6.008 40.108,-1.413 58.096,6.398c3.855,2.018 7.766,4.521 6.225,-1.921l0,-17.899c-30.086,-7.158 -62.104,-9.792 -92.33,-2.005c-8.748,2.468 -17.272,6.211 -24.379,11.956l0,0z" fill="url(#path3500_1_)"  id="path3500"/>
  </g>
  <text transform="matrix(3.31676 0 0 3.18712 -1369.89 -935.278)" stroke="#000" xml:space="preserve" text-anchor="start" font-family="'Spartan'" font-size="24" id="svg_3" y="432.16795" x="481.91199" stroke-width="0" fill="#000000">Terminal</text>
 </g>
</svg>