<svg width="780" height="780" xmlns="http://www.w3.org/2000/svg" enable-background="new 0 0 780 500" version="1.1" xml:space="preserve">
 <g class="layer">
  <title>Layer 1</title>
  <path d="m293.2,348.73l33.36,-195.76l53.36,0l-33.39,195.76l-53.33,0zm246.11,-191.54c-10.57,-3.97 -27.14,-8.22 -47.82,-8.22c-52.73,0 -89.86,26.55 -90.18,64.6c-0.3,28.13 26.51,43.82 46.75,53.19c20.77,9.6 27.75,15.71 27.65,24.28c-0.13,13.12 -16.58,19.12 -31.92,19.12c-21.36,0 -32.7,-2.97 -50.23,-10.28l-6.87,-3.11l-7.49,43.82c12.46,5.47 35.51,10.2 59.44,10.45c56.09,0 92.5,-26.25 92.91,-66.89c0.2,-22.27 -14.01,-39.21 -44.8,-53.18c-18.65,-9.06 -30.07,-15.1 -29.95,-24.27c0,-8.14 9.67,-16.84 30.56,-16.84c17.45,-0.27 30.09,3.53 39.94,7.5l4.78,2.26l7.23,-42.43m137.31,-4.22l-41.23,0c-12.77,0 -22.33,3.48 -27.94,16.23l-79.25,179.4l56.04,0s9.15,-24.12 11.23,-29.42c6.12,0 60.55,0.09 68.33,0.09c1.6,6.85 6.49,29.33 6.49,29.33l49.52,0l-43.19,-195.64l0,0.01zm-65.42,126.41c4.42,-11.28 21.26,-54.73 21.26,-54.73c-0.31,0.52 4.38,-11.33 7.08,-18.68l3.6,16.88s10.22,46.73 12.36,56.52l-44.3,0l0,0.01zm-363.3,-126.41l-52.24,133.5l-5.56,-27.13c-9.73,-31.28 -40.03,-65.16 -73.9,-82.12l47.77,171.2l56.45,-0.07l84.01,-195.39l-56.53,0" fill="#0E4595" id="svg_1"/>
  <path d="m146.92,152.96l-86.04,0l-0.68,4.07c66.94,16.21 111.23,55.37 129.62,102.42l-18.71,-89.96c-3.23,-12.39 -12.6,-16.09 -24.19,-16.52" fill="#F2AE14" id="svg_2"/>
  <text fill="#000000" font-family="Sans-serif" font-size="24" id="svg_3" stroke-width="0" text-anchor="middle" transform="matrix(3.68744 0 0 3.4521 -993.095 -926.181)" x="386.70397" xml:space="preserve" y="389.77347">Terminal Debito</text>
 </g>

</svg>